<svg width="552" height="156" viewBox="0 0 552 156" fill="none" xmlns="http://www.w3.org/2000/svg">
<g clip-path="url(#clip0_9_73)">
<path d="M138.15 0.570007H0V73.34H138.15V0.570007Z" fill="#20ACDE"/>
<path d="M22.58 59.45C18.7133 57.4223 15.4813 54.3668 13.24 50.62C11.0252 46.7738 9.8595 42.4133 9.8595 37.975C9.8595 33.5367 11.0252 29.1762 13.24 25.33C15.4813 21.5832 18.7133 18.5277 22.58 16.5C26.7152 14.3167 31.3345 13.2126 36.01 13.29C40.6659 13.2171 45.2647 14.3213 49.38 16.5C53.2717 18.5762 56.5261 21.671 58.7953 25.4535C61.0645 29.236 62.2631 33.564 62.2631 37.975C62.2631 42.3859 61.0645 46.714 58.7953 50.4965C56.5261 54.279 53.2717 57.3738 49.38 59.45C45.2647 61.6287 40.6659 62.7329 36.01 62.66C31.3345 62.7374 26.7152 61.6333 22.58 59.45V59.45ZM43.58 51.3C45.8582 50.0507 47.7396 48.1865 49.01 45.92C50.2906 43.4818 50.9597 40.769 50.9597 38.015C50.9597 35.261 50.2906 32.5482 49.01 30.11C47.7632 27.84 45.9113 25.9603 43.66 24.68C41.3164 23.4074 38.6918 22.7408 36.025 22.7408C33.3582 22.7408 30.7336 23.4074 28.39 24.68C26.1331 25.945 24.2708 27.8107 23.01 30.07C21.7292 32.5153 21.0601 35.2346 21.0601 37.995C21.0601 40.7554 21.7292 43.4747 23.01 45.92C24.2567 48.1908 26.1132 50.0681 28.37 51.34C30.7114 52.6197 33.3368 53.2903 36.005 53.2903C38.6732 53.2903 41.2986 52.6197 43.64 51.34L43.58 51.3Z" fill="white"/>
<path d="M103.01 28.7C105.81 31.4333 107.21 35.48 107.21 40.84V61.84H96.52V42.47C96.52 39.57 95.8833 37.4 94.61 35.96C93.9021 35.2217 93.0411 34.6474 92.0874 34.2777C91.1337 33.908 90.1106 33.7517 89.09 33.82C87.9068 33.7638 86.725 33.9563 85.6209 34.3852C84.5168 34.8141 83.5149 35.4698 82.68 36.31C81.09 37.96 80.29 40.43 80.29 43.7V61.84H69.66V11.25H80.29V28.97C81.7464 27.54 83.4922 26.4387 85.41 25.74C87.5039 24.9718 89.7197 24.5889 91.95 24.61C96.4967 24.61 100.183 25.9733 103.01 28.7Z" fill="white"/>
<path d="M117.08 60.58C116.476 60.0189 115.997 59.3374 115.673 58.5795C115.349 57.8216 115.188 57.0041 115.2 56.18C115.183 55.3691 115.338 54.5639 115.655 53.8174C115.972 53.071 116.444 52.4004 117.04 51.85C118.35 50.7269 120.019 50.1096 121.745 50.1096C123.471 50.1096 125.14 50.7269 126.45 51.85C127.047 52.3992 127.52 53.0696 127.838 53.8163C128.155 54.563 128.309 55.3689 128.29 56.18C128.304 57.0035 128.145 57.8206 127.822 58.5786C127.5 59.3366 127.022 60.0184 126.42 60.58C125.136 61.7297 123.473 62.3655 121.75 62.3655C120.027 62.3655 118.364 61.7297 117.08 60.58V60.58ZM115.41 14.11H128.09L126.01 45.27H117.56L115.41 14.11Z" fill="white"/>
<path d="M74.27 86.45C77.7167 89.91 79.4433 95.0967 79.45 102.01V128.85H65.86V104.1C65.86 100.38 65.09 97.6067 63.55 95.78C62.74 94.8554 61.7302 94.1274 60.5971 93.6509C59.464 93.1744 58.2373 92.9621 57.01 93.03C55.5975 92.9601 54.1869 93.2005 52.8773 93.7344C51.5677 94.2682 50.391 95.0825 49.43 96.12C47.56 98.19 46.64 101.25 46.64 105.32V128.85H33.01V104.1C33.01 96.72 30.0467 93.03 24.12 93.03C22.7216 92.9665 21.3263 93.2103 20.0322 93.7442C18.7382 94.2781 17.5769 95.089 16.63 96.12C14.77 98.1867 13.84 101.253 13.84 105.32V128.85H0.229996V81.92H13.23V87.32C14.9861 85.3374 17.1763 83.7871 19.63 82.79C22.2731 81.7247 25.1004 81.1912 27.95 81.22C31.0639 81.1854 34.1438 81.8698 36.95 83.22C39.5693 84.4997 41.7892 86.4706 43.37 88.92C45.3042 86.4734 47.802 84.5314 50.65 83.26C53.6771 81.9031 56.963 81.2207 60.28 81.26C66.1533 81.26 70.8167 82.99 74.27 86.45Z" fill="#1A427A"/>
<path d="M121.76 94.5C124.03 94.5 125.87 92.6599 125.87 90.39C125.87 88.1201 124.03 86.28 121.76 86.28C119.49 86.28 117.65 88.1201 117.65 90.39C117.65 92.6599 119.49 94.5 121.76 94.5Z" fill="#20ACDE"/>
<path d="M102.66 94.5C104.93 94.5 106.77 92.6599 106.77 90.39C106.77 88.1201 104.93 86.28 102.66 86.28C100.39 86.28 98.55 88.1201 98.55 90.39C98.55 92.6599 100.39 94.5 102.66 94.5Z" fill="#20ACDE"/>
<path d="M112.21 127.14C105.415 127.132 98.9005 124.429 94.0956 119.624C89.2908 114.82 86.588 108.305 86.58 101.51H95.79C95.79 105.865 97.52 110.041 100.599 113.121C103.679 116.2 107.855 117.93 112.21 117.93C116.565 117.93 120.741 116.2 123.821 113.121C126.9 110.041 128.63 105.865 128.63 101.51H137.85C137.842 108.307 135.138 114.823 130.331 119.628C125.524 124.433 119.007 127.135 112.21 127.14V127.14Z" fill="#20ACDE"/>
<path d="M112.21 155.18V145.97C116.563 145.965 120.737 144.233 123.815 141.155C126.893 138.077 128.625 133.903 128.63 129.55H137.85C137.842 136.347 135.138 142.863 130.331 147.668C125.524 152.473 119.007 155.175 112.21 155.18V155.18Z" fill="#1A427A"/>
<path d="M137.84 97.61H128.69L128.82 94.9H137.71L137.84 97.61Z" fill="#1A427A"/>
<path d="M134.54 92.59V94.89H131.96V92.59L132 92.55L132.56 92.06H133.94L134.5 92.55L134.54 92.59Z" fill="#1A427A"/>
<path d="M132.8 85.55H133.72C133.778 85.55 133.834 85.5732 133.876 85.6144C133.917 85.6557 133.94 85.7116 133.94 85.77V92.06H132.58V85.77C132.58 85.7116 132.603 85.6557 132.644 85.6144C132.686 85.5732 132.742 85.55 132.8 85.55Z" fill="#1A427A"/>
<path d="M551.29 133.64H542.14L542.27 136.35H551.16L551.29 133.64Z" fill="#1A427A"/>
<path d="M547.99 138.66V136.35H545.41V138.66L545.45 138.7L546.01 139.19H547.39L547.94 138.7L547.99 138.66Z" fill="#1A427A"/>
<path d="M546 139.19H547.36V145.48C547.36 145.538 547.337 145.594 547.296 145.636C547.254 145.677 547.198 145.7 547.14 145.7H546.22C546.162 145.7 546.106 145.677 546.064 145.636C546.023 145.594 546 145.538 546 145.48V139.19Z" fill="#1A427A"/>
<path d="M274.46 114.23L265.96 115.73L244.61 1.5L253.11 0L274.46 114.23Z" fill="#1A427A"/>
<path d="M551.09 63.31V129.74H542.34V64.35C542.269 60.0804 541.39 55.8628 539.75 51.92C537.98 47.5921 535.062 43.83 531.31 41.04C527.41 38.04 522.48 36.57 516.69 36.57H516.35C511.981 36.5405 507.696 37.7732 504.01 40.12C500.176 42.5463 497.015 45.8995 494.82 49.87C492.538 53.8585 491.338 58.3746 491.34 62.97V129.74H216.64C208.56 129.762 200.539 128.367 192.94 125.62C185.277 122.823 178.23 118.564 172.19 113.08C165.773 107.201 160.736 99.9749 157.44 91.92C153.763 82.8225 151.944 73.0813 152.09 63.27C152.032 56.1121 153.182 48.9957 155.49 42.22C157.573 36.2846 160.631 30.7384 164.54 25.81C171.79 16.61 180.22 10.11 189.54 6.55002C198.86 2.99002 207.54 1.20001 215.46 1.20001H233.11V9.41002H216.64C208.534 9.29635 200.491 10.8626 193.02 14.01C189.743 15.4389 186.62 17.198 183.7 19.26C180.913 21.2334 178.371 23.5331 176.13 26.11C171.555 31.112 167.987 36.9483 165.62 43.3C164.338 46.6571 163.289 50.0986 162.48 53.6C161.744 56.8828 161.369 60.2359 161.36 63.6C161.36 79.36 165.87 92.72 174.73 103.32C179.423 108.814 185.282 113.194 191.88 116.14C199.799 119.563 208.354 121.267 216.98 121.14H482.63V62.63C482.748 57.7653 483.765 52.9644 485.63 48.47C487.826 43.0952 491.433 38.4136 496.07 34.92C498.702 32.8417 501.686 31.2531 504.88 30.23C508.354 29.0845 511.992 28.5137 515.65 28.54C521.771 28.4699 527.819 29.8654 533.29 32.61C538.584 35.3424 543.01 39.4984 546.07 44.61C547.713 47.3219 548.968 50.2503 549.8 53.31C550.675 56.5707 551.109 59.934 551.09 63.31Z" fill="#20ACDE"/>
<path d="M373.17 72.7V73.64C373.205 77.6649 372.639 81.6724 371.49 85.53C370.334 89.2572 368.69 92.8148 366.6 96.11C362.708 102.324 357.207 107.369 350.68 110.71C344.251 113.946 337.147 115.615 329.95 115.58C322.223 115.669 314.607 113.729 307.864 109.955C301.12 106.18 295.485 100.703 291.52 94.07C289.608 90.7494 288.094 87.215 287.01 83.54C285.932 79.8261 285.39 75.9772 285.4 72.11C285.408 68.359 285.95 64.6282 287.01 61.03C288.082 57.3455 289.614 53.811 291.57 50.51C295.224 43.9243 300.536 38.4086 306.98 34.51C313.476 30.5429 320.949 28.4651 328.56 28.51C332.57 28.4852 336.567 28.9588 340.46 29.92C344.289 30.9032 347.964 32.4108 351.38 34.4C358.22 38.19 363.38 43.06 366.62 48.87L367.04 49.63L306.67 90.44L301.54 83.57L354.41 47.75C351.663 44.3003 348.085 41.6059 344.01 39.92C339.239 37.8643 334.095 36.8158 328.9 36.84C323.845 36.8246 318.843 37.874 314.22 39.92C309.483 42.062 305.358 45.3554 302.22 49.5C298.582 54.3436 296.114 59.9636 295.01 65.92L294.35 72.58C294.403 77.4295 295.423 82.2196 297.35 86.67C299.211 91.3415 302.135 95.5152 305.89 98.86C310.233 102.723 315.407 105.535 321.01 107.08L328.64 108.08C331.823 108.088 334.995 107.695 338.08 106.91C341.053 106.117 343.906 104.927 346.56 103.37C351.738 100.375 356.076 96.12 359.17 91C360.815 88.3384 362.157 85.5007 363.17 82.54C364.11 79.6742 364.582 76.6759 364.57 73.66V72.72L373.17 72.7Z" fill="#20ACDE"/>
<path d="M468.84 71.35V114.23H460.2V71.01C460.223 67.5104 459.731 64.0265 458.74 60.67C457.795 57.4849 456.394 54.4535 454.58 51.67C451.466 46.8083 447.095 42.8795 441.93 40.3C434.17 36.45 426.37 35.49 419.73 37.47C417.445 38.1709 415.255 39.1517 413.21 40.39C409.389 42.6811 406.053 45.6978 403.39 49.27C401.002 52.4061 399.088 55.8766 397.71 59.57C396.69 62.1224 396.095 64.825 395.95 67.57V71.37C395.802 77.6707 397.145 83.917 399.87 89.6C402.242 94.5237 405.862 98.7403 410.37 101.83C414.801 104.83 419.824 106.846 425.1 107.74C436.44 107.74 445.89 103.74 452.99 96.02L454.62 94.24V105.32L454.28 105.58C445.91 112.23 437.09 115.58 428.07 115.58C420.361 115.744 412.777 113.614 406.28 109.46C400.151 105.435 395.221 99.8318 392.01 93.24C388.642 86.3179 386.93 78.7075 387.01 71.01V68.92C387 68.265 387.064 67.6109 387.2 66.97C387.471 63.829 388.044 60.7213 388.91 57.69C389.747 54.8732 390.876 52.1517 392.28 49.57C394.778 44.9421 398.178 40.8618 402.28 37.57C406.027 34.6112 410.251 32.3117 414.77 30.77C418.583 29.4184 422.586 28.6793 426.63 28.58C436.3 28.58 444.44 30.87 450.8 35.39C456.883 39.5693 461.666 45.3778 464.6 52.15C465.911 55.2766 466.945 58.5124 467.69 61.82C468.432 64.943 468.818 68.1401 468.84 71.35V71.35Z" fill="#1A427A"/>
</g>
<defs>
<clipPath id="clip0_9_73">
<rect width="551.29" height="155.19" fill="white"/>
</clipPath>
</defs>
</svg>
